<svg xmlns="http://www.w3.org/2000/svg" width="200" height="200" fill="none" viewBox="0 0 200 200">
<!-- SVG created with Arrow, by QuiverAI (https://quiver.ai) -->
  <path d="m99.94 3c-39.16 0-72.63 33.83-72.63 75.15 0 15.58 5.16 30.57 14.75 42.94h14.85c-10.67-11.48-16.78-26.01-16.78-42.13 0-12.48 3-23.64 9.66-36.92 18.97-0.87 36.38 8.25 48.86 18.12-10.37-13.88-21.5-22.75-40.23-26.45 19.39 2.02 35.02 11.44 52.8 26.45-10.37-18.44-23.29-29.08-41.2-35.92 17.26 3.7 33.91 15.02 50.55 34.9-8.08-17.1-19.21-29.12-37.12-41.82 14.24 7.23 29.87 19.25 46.52 41.11-7.09-17.1-17.16-29.12-31.4-43.31 12.92 8.86 25.84 20.19 39.41 42.7-4.86-14.51-13.27-27.48-23.34-41.11 11.8 10.36 21.25 21.37 32.73 40.3-3.69-13.88-9.46-24.52-15.23-33.39 8.72 8.51 16.8 19.2 26.25 35.62-3.03-11.01-6.73-18.84-11.13-25.98 7.77 5.49 14.86 14 22.94 26.97-8.41-31.78-36.09-57.23-70.26-57.23z" fill="url(#paint0_linear_116_2)"/>
  <path d="m99.94 7.67c-36.85 0-65.87 31.78-65.87 69.56 0 15.03 5.17 27.94 13.25 39.26l-5.26 4.6c-9.59-12.37-14.75-26.84-14.75-42.94 0-40.74 32.8-74.89 72.63-75.15 33.72 0 62.18 24.12 70.26 56.92-11.08-22.51-32.29-52.25-70.26-52.25z" fill="url(#paint0_linear_116_2)"/>
  <path d="m171.5 63.32c-24.49 1.97-50.57 8.86-72.3 16.74-13.27-5.12-34.47-12.75-54.63-15.8l-0.63 4.25 39.59 16.42c5.48-3.2 10.04-5.65 15.61-7.57l1.29 2.86 15.58 5.79 55.49-22.69z" fill="url(#paint2_linear_116_2)"/>
  <path d="m171.5 63.58c-18.34 7.18-37.42 15.64-54.89 22.73l-15.74-5.79c-13.03 5.79-22.13 10.6-31.83 16.69l12.87 10.54c1.4-3.09 5.44-5.6 9.54-4.68v-2.17c0.93-4.05 3.35-5.77 6.53-5.82 2.78-0.05 5.81 0.98 7.16 5.25v8.56l3.23-2.86c1.4-2.81 3.77-3.42 6.29-3.22 2.88 0.26 4.88 1.93 5.91 4.53l11.37-10.13-14.45-7.88-14.03 7.19-1.23-1.44 13.41-7.88-14.46-6.68c21.98-9.16 46.65-15.28 70.32-17.2v0.26z" fill="url(#paint3_linear_116_2)"/>
  <path d="m172 68.82-36.55 26-14.79-7.19c15.89-8.87 33.8-16.06 51.12-22.5l0.22 3.69z" fill="url(#paint4_linear_116_2)"/>
  <path d="m172.3 76.21-20.86 30.87-14.79-10.96 35.6-26.69 0.05 6.78z" fill="url(#paint5_linear_116_2)"/>
  <path d="m162.1 114-4.81 7.13-6.11-10.02-7.52 9.46-3.23-1.72 8.41-11.58-13.57-9.16-12.92 10.35c4.86-1.19 8.74 1.62 9.34 7.41 4.86-2.02 7.84-0.3 9.24 3.74l15.64 0.51 5.53-6.12z" fill="url(#paint6_linear_116_2)"/>
  <path d="m43.61 69.53 36.88 17.57-14.34 7.88-23.36-17.29 0.82-8.16z" fill="url(#paint7_linear_116_2)"/>
  <path d="m43.13 79.12 20.86 17.56-14.79 8.87c-4.04-7.63-6.07-15.8-6.07-26.43z" fill="url(#paint8_linear_116_2)"/>
  <path d="m44.13 123.9h14.35c1.4 0 1.56-1.62 1.72-2.81 0.53-3.2 2.61-4.07 4.75-3.87 2.37 0.26 3.71 1.59 3.97 3.87v-6.63c0.53-4.42 3.2-6.45 6.33-6.14 2.98 0.31 4.38 1.59 5.3 4.4 0.87-2.27 1.59-3.14 3.21-3.74v-1.87c0-3.16 3.28-5.01 5.95-4.7 2.67 0.3 4.18 1.64 4.8 3.91v-5.58c0.21-3.02 2.25-4.68 4.82-4.58 2.88 0.1 5.02 1.76 5.28 4.88v9.16c1.88 0 3.12 0.87 4.04 2.21v-3.99c0.67-3.41 3.1-4.47 5.72-4.31 3.08 0.2 4.75 1.92 5.52 5.02 1.83-1.43 4.06-1.79 6.19-1.12 2.88 0.97 4.06 2.94 4.37 6.3v3.94c1.4-2.52 3.54-3.13 5.67-2.82 2.83 0.4 3.81 2.36 4.33 5.51h15.47l-2.47 5.49h-11.81c-2.98 0-4.38-1.02-5.05-3.19v5.48c-0.87 4.44-3.84 6.31-7.48 5.7-1.62-0.3-2.6-1.11-3.08-2.28v4.04c-1.13 4.05-3.86 5.62-6.89 5.32-2.42-0.26-3.71-1.43-4.63-3.3v4.05c-1.61 4.44-6.12 7.01-8.69 5.24v2.43c16.65-2.07 31.44-9.7 44.96-20.89h-8.67c-4.09 0-5.92-1.38-6.49-3.82-0.33-1.33 0-4.12-1.51-4.12-0.93 0-1.41 1.03-1.41 2.15v5.79c0 1.72-1.13 2.7-2.48 2.6-1.61-0.1-2.43-1.23-2.43-2.91v-14.11c0-1.72-1.28-2.53-2.46-2.53-1.51 0-2.54 0.96-2.54 2.53v20.7c0 2.38-1.67 3.6-3.45 3.45-2.03-0.15-3.06-1.48-3.06-3.75v-25.93c0-1.72-1.23-2.53-2.53-2.48-1.61 0.05-2.53 1.12-2.53 2.84v31.19c0 2.02-1.4 3.09-2.8 2.99-1.78-0.15-2.6-1.37-2.6-3.4v-23.78c0-1.72-1.03-2.79-2.32-2.74-1.18 0.05-1.85 0.91-1.85 2.44v34.39c0 2.71-5.53 4.58-6.4 0.54l-0.16-6.94v-42.23c0-2.28 1.35-3.45 2.87-3.4 1.67 0.05 2.65 1.12 2.65 3.14v10.19c0.42-0.61 1.4-1.12 2.52-1.22l-2.52-0.11v-9.46c0-1.72-1.13-2.54-2.37-2.54-1.61 0-2.54 1.07-2.54 2.79v36.55c0 4.41-2.57 6.95-5.95 6.95-3.03 0-4.7-1.68-5.73-4.57-1.24 2.13-3.01 2.59-4.79 2.38-3.28-0.35-5.31-2.68-5.89-7.44-1.67 1.22-3.28 1.42-4.95 0.91-3.03-0.96-4.48-3.03-4.84-7.14-1.4 0.61-2.74 1.12-4.82 1.02l-9.5-0.26c11.48 11.04 25.05 18.62 44.43 20.33v-4.97c-2.57 1.17-7.48 0.26-8.61-3.96-1.4 2.17-3.23 2.43-5.16 2.02-3.18-0.71-4.64-2.98-4.64-7.04v-3.12c-1.23 1.98-2.74 2.59-4.66 2.39-2.67-0.31-4.07-1.98-4.17-5.39v-7.23c0-1.12-0.37-1.73-1.3-1.73-1.13 0-1.5 1.12-1.6 2.24-0.31 3.41-1.82 4.37-5.91 4.37h-10.82l-2.66-3.7z" fill="url(#paint9_linear_116_2)"/>
  <path d="m74.33 114.2v16.5c0 2.03-1.23 3.1-2.68 3-1.62-0.15-2.29-1.27-2.29-3.3v-14.11c0-2.02 1.13-3.58 2.96-3.58 1.4 0 2.01 0.37 2.01 1.49z" fill="#FEFFFE"/>
  <path d="m83.97 118.2v17.72c0 1.72-1.13 2.79-2.53 2.74-1.61-0.05-2.48-1.17-2.48-2.89v-20.8c0-2.38 1.13-3.75 3.21-3.8 1.78-0.05 2.81 1.01 2.81 2.73l-1.01 4.3z" fill="#FEFFFE"/>
  <path d="m92.26 109.7v28.92c0 1.72-1.35 2.89-2.86 2.78-1.61-0.1-2.53-1.27-2.53-2.99v-28.91c0-1.72 1.24-2.89 2.75-2.79 1.72 0.1 2.64 1.27 2.64 2.99z" fill="#FEFFFE"/>
  <path d="m48.79 184.3h-12.23l-2.35 5.59h-5.21l11.13-24.02h4.91l10.67 24.02h-4.75l-2.17-5.59zm-1.67-3.79-4.46-10.49-4.7 10.49h9.16z" fill="#604A21"/>
  <path d="m75.62 171.4v16.52c0 6.73-3.39 9.44-9.41 9.44-3.33 0-6.61-0.87-8.69-2.59l1.87-3.51c1.56 1.37 4.18 2.28 6.65 2.28 3.94 0 5.61-1.87 5.61-5.62v-1.12c-1.51 1.77-3.74 2.59-6.31 2.59-5.38 0-9.32-3.61-9.32-8.94s3.94-8.84 9.32-8.84c2.67 0 5.04 0.92 6.55 2.94v-3.15h3.73zm-4.25 9.05c0-3.31-2.42-5.49-5.65-5.49-3.28 0-5.65 2.18-5.65 5.49 0 3.35 2.37 5.58 5.65 5.58 3.23 0 5.65-2.23 5.65-5.58z" fill="#604A21"/>
  <path d="m91.7 171.6v3.95c-0.42-0.05-0.79-0.1-1.16-0.1-3.33 0-5.46 2.02-5.46 5.91v8.57h-4.46v-18.23h3.94v2.38c1.29-1.72 3.56-2.48 7.14-2.48z" fill="#604A21"/>
  <path d="m93.88 165.9c0-1.72 1.13-2.89 2.85-2.89s2.96 1.12 2.96 2.74c0 1.72-1.18 2.99-2.96 2.99-1.72 0-2.85-1.22-2.85-2.84zm0.57 5.79h4.46v18.23h-4.46v-18.23z" fill="#604A21"/>
  <path d="m103.9 165.4h4.86v20.37h12.42v4.11h-17.28v-24.48z" fill="url(#paint10_linear_116_2)"/>
  <path d="m123.2 165.9c0-1.72 1.23-2.89 2.95-2.89s2.96 1.12 2.96 2.74c0 1.72-1.18 2.99-2.96 2.99-1.72 0-2.95-1.22-2.95-2.84zm0.57 5.79h4.46v18.23h-4.46v-18.23z" fill="url(#paint11_linear_116_2)"/>
  <path d="m150.4 171.7-7.67 18.23h-4.05l-7.67-18.23h4.35l5.53 13.81 5.77-13.81h3.74z" fill="url(#paint12_linear_116_2)"/>
  <path d="m169.9 182.2h-14.45c0.57 2.79 2.85 4.56 6.08 4.56 1.93 0 3.44-0.66 4.73-2.02l2.47 2.9c-1.66 2.02-4.23 3.09-7.36 3.09-6.11 0-10.05-3.84-10.05-9.31 0-5.49 3.99-9.27 9.37-9.27 5.37 0 9.21 3.56 9.21 9.35 0.05 0.25 0 0.7 0 0.7zm-14.45-2.68h10.32c-0.42-2.73-2.45-4.55-5.13-4.55-2.72 0-4.7 1.77-5.19 4.55z" fill="url(#paint13_linear_116_2)"/>
  <defs>
    <linearGradient id="paint0_linear_116_2" x1="98.75" x2="98.75" y1="3" y2="121.1" gradientUnits="userSpaceOnUse">
      <stop stop-color="#C5B822" offset="0"/>
      <stop stop-color="#669620" offset=".5052"/>
      <stop stop-color="#1A7D36" offset="1"/>
    </linearGradient>
    <linearGradient id="paint2_linear_116_2" x1="107.7" x2="107.7" y1="63.32" y2="91.12" gradientUnits="userSpaceOnUse">
      <stop stop-color="#D9B551" offset="0"/>
      <stop stop-color="#B56F18" offset="1"/>
    </linearGradient>
    <linearGradient id="paint3_linear_116_2" x1="136.6" x2="136.6" y1="63.32" y2="109.2" gradientUnits="userSpaceOnUse">
      <stop stop-color="#749A23" offset="0"/>
      <stop stop-color="#43842A" offset="1"/>
    </linearGradient>
    <linearGradient id="paint4_linear_116_2" x1="146.3" x2="146.3" y1="65.13" y2="94.82" gradientUnits="userSpaceOnUse">
      <stop stop-color="#87A328" offset="0"/>
      <stop stop-color="#639226" offset="1"/>
    </linearGradient>
    <linearGradient id="paint5_linear_116_2" x1="154.5" x2="154.5" y1="69.43" y2="107.1" gradientUnits="userSpaceOnUse">
      <stop stop-color="#87A328" offset="0"/>
      <stop stop-color="#639226" offset="1"/>
    </linearGradient>
    <linearGradient id="paint6_linear_116_2" x1="142.3" x2="142.3" y1="97" y2="121.1" gradientUnits="userSpaceOnUse">
      <stop stop-color="#87A328" offset="0"/>
      <stop stop-color="#639226" offset="1"/>
    </linearGradient>
    <linearGradient id="paint7_linear_116_2" x1="61.64" x2="61.64" y1="69.53" y2="94.98" gradientUnits="userSpaceOnUse">
      <stop stop-color="#D9B551" offset="0"/>
      <stop stop-color="#B57019" offset="1"/>
    </linearGradient>
    <linearGradient id="paint8_linear_116_2" x1="53.56" x2="53.56" y1="79.12" y2="105.5" gradientUnits="userSpaceOnUse">
      <stop stop-color="#D9B551" offset="0"/>
      <stop stop-color="#B57019" offset="1"/>
    </linearGradient>
    <linearGradient id="paint9_linear_116_2" x1="100" x2="100" y1="96.15" y2="154" gradientUnits="userSpaceOnUse">
      <stop stop-color="#F6B642" offset="0"/>
      <stop stop-color="#A86211" offset="1"/>
    </linearGradient>
    <linearGradient id="paint10_linear_116_2" x1="112.5" x2="112.5" y1="165.4" y2="189.9" gradientUnits="userSpaceOnUse">
      <stop stop-color="#619E21" offset="0"/>
      <stop stop-color="#1F762E" offset="1"/>
    </linearGradient>
    <linearGradient id="paint11_linear_116_2" x1="126.1" x2="126.1" y1="163" y2="189.9" gradientUnits="userSpaceOnUse">
      <stop stop-color="#619E21" offset="0"/>
      <stop stop-color="#1F762E" offset="1"/>
    </linearGradient>
    <linearGradient id="paint12_linear_116_2" x1="140.7" x2="140.7" y1="171.7" y2="189.9" gradientUnits="userSpaceOnUse">
      <stop stop-color="#619E21" offset="0"/>
      <stop stop-color="#1F762E" offset="1"/>
    </linearGradient>
    <linearGradient id="paint13_linear_116_2" x1="160.6" x2="160.6" y1="172.1" y2="190.7" gradientUnits="userSpaceOnUse">
      <stop stop-color="#619E21" offset="0"/>
      <stop stop-color="#1F762E" offset="1"/>
    </linearGradient>
  </defs>
</svg>